<?xml version="1.0" standalone="no"?>
<!DOCTYPE svg PUBLIC "-//W3C//DTD SVG 20010904//EN"
 "http://www.w3.org/TR/2001/REC-SVG-20010904/DTD/svg10.dtd">
<svg version="1.0" xmlns="http://www.w3.org/2000/svg"
 width="500.000000pt" height="500.000000pt" viewBox="0 0 500.000000 500.000000"
 preserveAspectRatio="xMidYMid meet">

<g transform="translate(0.000000,500.000000) scale(0.100000,-0.100000)"
fill="#000000" stroke="none">
<path d="M2243 4810 c-13 -5 -23 -15 -23 -22 0 -7 -18 -33 -40 -58 -22 -25
-40 -51 -40 -58 0 -7 -19 -41 -43 -75 -23 -34 -50 -78 -60 -97 -10 -19 -26
-46 -36 -60 l-19 -24 -54 27 c-29 15 -56 27 -60 27 -4 0 -31 11 -60 24 -88 41
-151 68 -193 86 -93 38 -134 56 -195 87 -60 30 -67 31 -88 17 -32 -21 -37 -40
-18 -69 9 -13 16 -31 16 -38 0 -13 19 -59 41 -99 5 -10 9 -25 9 -33 0 -8 4
-23 9 -33 5 -9 12 -24 15 -32 3 -8 10 -22 15 -30 33 -56 38 -102 8 -83 -12 8
-86 17 -232 29 -38 3 -84 12 -102 20 -47 21 -166 19 -186 -4 -26 -29 -21 -43
39 -107 31 -33 84 -91 117 -130 33 -38 66 -74 74 -78 21 -13 15 -27 -12 -27
-15 0 -40 -7 -57 -16 -17 -9 -40 -13 -52 -10 -19 5 -49 -2 -111 -24 -59 -21
-95 -30 -123 -30 -17 0 -33 -4 -36 -9 -4 -5 -30 -12 -59 -16 -55 -7 -117 -38
-117 -58 0 -25 19 -37 130 -81 223 -90 253 -105 239 -123 -6 -7 -15 -13 -20
-13 -5 0 -43 -20 -85 -45 -41 -25 -79 -45 -83 -45 -3 0 -23 -11 -43 -25 -20
-14 -44 -25 -52 -25 -8 0 -28 -11 -44 -25 -17 -14 -44 -30 -61 -36 -26 -9 -31
-16 -31 -44 0 -19 5 -37 12 -41 7 -5 97 -7 200 -5 103 1 188 0 188 -2 0 -13
-40 -88 -73 -139 -20 -31 -37 -61 -37 -67 0 -5 -11 -22 -24 -38 -32 -38 -69
-118 -64 -140 6 -33 62 -39 135 -14 64 22 88 22 65 -1 -7 -7 -12 -30 -12 -51
0 -21 -6 -53 -14 -70 -8 -18 -19 -48 -25 -67 -12 -41 -38 -117 -50 -145 -11
-25 -40 -120 -87 -285 -34 -119 -58 -230 -89 -405 -8 -44 -19 -100 -25 -125
-11 -49 -27 -205 -40 -399 -10 -150 -10 -151 95 -249 227 -212 520 -354 854
-412 158 -28 206 -27 235 5 49 53 136 173 136 188 0 16 -72 58 -120 70 -40 10
-221 110 -300 166 -72 50 -78 69 -10 32 19 -10 46 -22 60 -26 14 -4 39 -13 55
-20 300 -129 675 -184 1115 -164 153 7 273 23 460 63 74 16 275 81 295 96 10
7 48 22 150 61 45 17 48 17 27 2 -12 -10 -43 -34 -67 -53 -45 -36 -218 -126
-335 -175 -36 -15 -69 -31 -73 -35 -11 -10 5 -40 65 -120 84 -111 82 -110 131
-110 48 0 261 34 312 50 17 5 71 21 120 36 50 14 99 32 110 39 11 6 37 18 59
25 54 17 225 120 309 185 39 30 102 85 141 123 l71 67 0 110 c0 104 -11 261
-20 274 -2 4 -8 45 -14 91 -25 189 -56 348 -120 610 -47 190 -187 572 -257
702 -13 24 -19 68 -10 68 3 0 21 -9 40 -21 44 -26 76 -22 95 13 14 24 14 28
-2 46 -9 10 -17 30 -17 43 0 14 -11 47 -24 75 -16 31 -21 53 -15 59 6 6 75 15
155 21 160 12 182 21 170 69 -4 14 -17 30 -29 34 -12 5 -51 31 -87 57 -74 56
-81 60 -141 93 -52 28 -101 62 -111 76 -10 14 47 33 102 35 25 0 56 7 70 15
14 8 48 14 76 15 62 0 80 15 63 53 -7 14 -26 33 -44 41 -18 9 -38 22 -44 30
-7 8 -23 17 -37 20 -14 4 -34 15 -45 25 -11 10 -32 24 -47 32 -15 7 -40 22
-57 34 -16 11 -64 37 -105 59 -41 21 -87 47 -101 57 -15 10 -38 23 -53 29 -14
5 -26 14 -26 19 0 5 -9 11 -20 14 -36 9 -21 40 62 121 125 124 188 197 188
217 0 29 -35 32 -233 20 -189 -11 -228 -14 -362 -31 -44 -6 -120 -12 -168 -13
l-89 -3 6 56 c8 82 9 277 1 289 -11 18 -41 12 -102 -19 -31 -16 -61 -30 -66
-30 -5 0 -27 -13 -50 -28 -23 -16 -57 -34 -75 -40 -18 -6 -45 -20 -60 -30 -32
-22 -178 -96 -209 -106 -18 -6 -45 17 -175 147 -181 182 -191 189 -245 167z
m215 -202 c93 -93 175 -168 182 -168 11 0 383 188 509 257 24 13 46 21 49 18
5 -5 -5 -99 -29 -269 -6 -45 -6 -73 0 -79 10 -10 240 3 416 23 125 14 415 34
420 28 3 -2 -60 -72 -140 -154 -79 -82 -144 -152 -145 -156 0 -3 21 -18 48
-34 26 -15 168 -99 316 -187 235 -140 266 -162 245 -168 -13 -5 -96 -20 -184
-34 -88 -15 -164 -30 -169 -35 -4 -4 88 -72 207 -152 127 -83 212 -147 207
-152 -5 -5 -48 -13 -97 -17 -240 -24 -228 -21 -227 -49 1 -22 14 -59 63 -184
11 -27 11 -28 -15 -22 -15 4 -72 29 -127 56 -95 48 -126 57 -139 44 -4 -3 1
-31 9 -62 8 -31 18 -73 24 -92 13 -51 15 -75 6 -78 -8 -4 -59 42 -228 205 -42
40 -84 73 -93 73 -14 0 -16 -21 -16 -175 0 -96 -4 -175 -9 -175 -5 0 -21 17
-37 38 -48 63 -77 92 -91 92 -20 0 -16 -23 12 -71 36 -63 35 -155 0 -198 -100
-119 -454 -196 -890 -194 -501 2 -860 82 -968 215 -30 37 -30 40 -32 155 -1
64 -5 118 -11 120 -5 2 -25 -32 -46 -75 -36 -77 -36 -77 -47 -48 -6 15 -16 58
-22 95 -22 134 -24 144 -36 148 -10 4 -255 -185 -356 -274 -61 -54 -63 -47
-23 62 16 44 7 59 -28 45 -44 -17 -178 -52 -182 -47 -4 4 35 77 87 162 13 22
31 54 39 70 8 17 17 32 20 35 19 19 74 129 68 135 -3 3 -88 6 -189 7 -101 1
-190 4 -197 6 -20 7 14 28 343 210 50 28 90 56 90 63 0 8 -84 46 -203 93 -111
45 -202 84 -202 88 0 3 15 9 33 13 38 8 387 91 437 104 105 28 120 32 120 38
0 9 -41 61 -85 108 -21 22 -58 63 -83 90 -25 28 -62 67 -81 89 l-36 38 75 -6
c41 -4 136 -13 210 -21 74 -8 162 -17 195 -20 33 -3 61 -8 64 -10 2 -3 10 0
16 5 13 11 9 57 -6 66 -5 3 -9 12 -9 20 0 8 -11 37 -25 66 -14 28 -25 55 -25
60 0 7 -42 105 -61 140 -9 17 -13 58 -5 58 3 0 173 -75 356 -157 164 -74 262
-113 270 -108 16 10 158 220 245 363 10 16 38 42 42 39 1 -1 78 -77 171 -169z
m1639 -1765 c73 -167 181 -500 234 -722 l8 -34 -152 7 c-84 3 -216 11 -295 17
-106 9 -146 9 -155 0 -26 -26 18 -33 304 -47 162 -8 297 -19 302 -23 7 -7 47
-197 47 -222 0 -7 -14 -9 -37 -5 -21 3 -112 13 -203 21 -91 8 -193 18 -227 21
-54 6 -63 5 -63 -9 0 -23 -25 -19 398 -61 73 -8 135 -16 138 -18 5 -6 37 -229
32 -233 -2 -2 -97 10 -213 26 -226 31 -275 34 -275 20 0 -18 20 -22 247 -52
126 -16 233 -31 239 -33 7 -3 17 -59 24 -136 l13 -131 -69 -70 c-67 -69 -175
-156 -260 -211 -190 -122 -519 -232 -734 -244 l-85 -5 -60 82 c-33 45 -63 88
-67 94 -5 9 11 19 52 34 146 53 367 185 494 293 102 88 181 166 175 172 -3 3
-50 -24 -104 -60 -306 -204 -665 -317 -1099 -346 -555 -35 -1073 88 -1460 347
-54 36 -100 64 -102 62 -8 -8 202 -202 266 -247 135 -95 290 -179 413 -225 26
-10 47 -20 47 -23 0 -2 -30 -45 -66 -93 -66 -89 -66 -89 -111 -89 -155 0 -460
83 -643 175 -149 75 -299 184 -401 291 l-55 59 8 105 c10 139 16 170 32 170 8
0 115 14 239 30 124 17 228 30 231 30 3 0 6 7 6 15 0 21 -21 20 -270 -15 -118
-16 -215 -28 -217 -27 -1 1 5 55 14 120 l16 117 31 5 c17 2 130 14 251 25 221
21 277 32 258 51 -7 7 -94 2 -264 -14 -140 -14 -257 -22 -261 -18 -4 3 3 56
15 116 l22 110 85 7 c47 4 183 11 304 17 215 9 254 17 228 43 -8 8 -46 8 -154
0 -247 -20 -448 -26 -448 -14 0 43 87 344 151 522 23 63 43 123 46 132 3 9 18
20 33 23 16 3 34 12 40 20 9 10 42 -3 173 -69 158 -79 190 -93 272 -122 22 -8
48 -19 57 -24 10 -6 59 -24 110 -40 51 -17 102 -35 113 -40 26 -12 216 -55
325 -74 222 -39 251 -41 475 -40 213 0 244 3 420 33 105 18 213 39 240 47 166
50 264 85 342 120 17 8 36 14 43 14 7 0 24 7 38 15 15 8 54 26 87 40 33 15 68
31 78 36 9 5 63 33 119 62 112 57 142 80 157 120 16 40 29 33 58 -30z m-2702
-1653 c3 -6 -1 -7 -9 -4 -18 7 -21 14 -7 14 6 0 13 -4 16 -10z"/>
<path d="M1950 3379 c-91 -3 -181 -10 -200 -13 -19 -4 -45 -9 -57 -12 -16 -3
-33 -25 -59 -75 -37 -74 -37 -92 -3 -71 21 13 93 9 359 -19 244 -26 1142 -20
1244 9 l29 8 -73 84 c-40 47 -80 88 -89 92 -21 9 -936 7 -1151 -3z"/>
<path d="M2893 3073 l-51 -26 -74 18 c-50 13 -110 18 -188 18 -106 0 -120 -2
-180 -30 -73 -33 -116 -71 -145 -129 -11 -21 -27 -50 -36 -64 -9 -14 -31 -52
-49 -85 -69 -125 -71 -130 -42 -139 9 -3 139 -7 287 -8 263 -3 271 -2 320 20
63 29 84 48 106 97 22 48 24 91 5 136 -16 40 -35 58 -91 90 -34 20 -54 23
-140 23 -91 0 -104 -2 -141 -26 -103 -66 -112 -146 -23 -202 63 -40 181 -37
227 6 41 39 22 118 -29 118 -20 0 -26 -24 -9 -35 19 -12 10 -43 -17 -65 -23
-18 -36 -21 -71 -16 -68 9 -102 34 -102 74 0 70 63 112 168 112 191 -1 252
-189 87 -269 -66 -33 -183 -35 -265 -6 -191 69 -193 274 -3 345 73 27 212 27
314 0 41 -11 85 -19 99 -19 27 0 132 58 134 74 2 19 -40 14 -91 -12z m-633
-313 c11 -22 34 -50 51 -62 l31 -23 -33 -5 c-19 -3 -58 -3 -87 -2 -46 3 -52 6
-47 23 8 23 55 109 61 109 2 0 13 -18 24 -40z"/>
<path d="M1813 2250 c-13 -14 -23 -19 -23 -12 0 6 5 12 10 12 6 0 10 5 10 11
0 10 -59 -26 -71 -44 -4 -5 -12 -6 -18 -2 -12 7 -41 -11 -41 -26 0 -5 7 -6 15
-3 8 4 15 3 15 -1 0 -12 -54 -50 -66 -47 -22 5 -43 -61 -39 -118 4 -62 -6 -90
-17 -45 -4 17 -5 -3 -3 -45 5 -86 14 -132 25 -125 5 3 6 -3 4 -12 -3 -10 2
-27 11 -38 16 -20 16 -20 10 2 -4 15 0 25 12 31 14 8 20 3 35 -30 10 -22 18
-42 18 -45 0 -9 -27 22 -32 37 -3 8 -7 0 -10 -18 -2 -18 -1 -35 4 -38 4 -3 8
0 8 6 0 6 4 9 10 5 5 -3 7 -12 4 -19 -5 -14 43 -52 54 -42 3 3 0 6 -7 6 -7 0
-9 5 -6 11 5 7 14 4 26 -7 15 -14 17 -20 7 -26 -8 -6 -4 -7 11 -3 14 4 21 3
18 -3 -8 -11 125 -52 171 -52 100 0 207 75 265 185 30 57 32 66 32 170 0 102
-2 114 -30 168 -17 34 -52 79 -83 108 -66 60 -128 81 -232 77 -64 -3 -77 -6
-97 -28z m252 -29 c53 -26 108 -84 137 -146 33 -70 34 -228 1 -295 -30 -64
-86 -125 -136 -149 -48 -24 -137 -28 -201 -10 -51 14 -118 82 -152 155 -24 50
-28 72 -28 149 -1 99 17 153 76 228 69 86 203 117 303 68z m-285 6 c0 -2 -11
-14 -24 -26 -19 -17 -26 -20 -32 -9 -4 7 -4 10 1 6 5 -5 14 1 22 12 12 17 33
28 33 17z m-82 -94 c-9 -10 -21 -36 -28 -58 -12 -38 -13 -38 -22 -15 -5 13 -7
36 -5 50 l3 25 11 -25 c7 -14 12 -19 12 -12 1 17 32 64 39 57 3 -3 -2 -13 -10
-22z m-78 -240 c0 -20 -3 -24 -11 -16 -7 7 -9 19 -6 27 10 24 17 19 17 -11z
m40 -77 c0 -3 -4 -8 -10 -11 -5 -3 -10 -1 -10 4 0 6 5 11 10 11 6 0 10 -2 10
-4z m66 -127 c3 -6 2 -15 -4 -21 -6 -6 -11 -2 -15 11 -5 22 7 29 19 10z"/>
<path d="M1900 2108 c-116 -59 -145 -215 -57 -314 42 -49 77 -64 147 -64 67 0
101 14 142 57 155 163 -32 422 -232 321z m176 -23 c73 -43 105 -119 84 -205
-28 -118 -157 -169 -266 -105 -75 44 -104 138 -69 222 21 50 42 72 90 94 56
26 110 24 161 -6z"/>
<path d="M1910 1971 c-20 -6 -25 -13 -25 -41 0 -28 5 -35 25 -41 39 -11 136
-10 165 1 22 8 26 15 23 42 -2 25 -9 34 -28 39 -32 9 -128 9 -160 0z"/>
<path d="M3021 2269 c-124 -37 -219 -168 -229 -316 -16 -250 187 -438 393
-363 33 12 67 22 75 24 36 6 56 17 69 38 13 22 13 23 -6 6 -34 -31 -37 -20 -4
17 17 19 43 61 58 93 24 50 27 69 27 159 1 55 4 99 9 96 4 -2 7 9 7 26 0 16
-6 31 -12 34 -9 3 -7 10 7 21 14 12 16 19 8 22 -7 3 -13 11 -13 18 0 20 -71
88 -86 82 -7 -3 -18 3 -23 12 -8 14 -12 15 -22 5 -11 -11 -10 -13 4 -13 9 0
17 -4 17 -10 0 -15 -6 -13 -58 20 -41 27 -43 30 -17 24 17 -4 27 -4 23 0 -10
12 -190 16 -227 5z m184 -51 c41 -21 105 -79 105 -96 0 -5 8 -20 19 -33 61
-79 56 -249 -12 -356 -30 -47 -79 -91 -124 -110 -38 -15 -133 -17 -182 -3
-135 38 -228 254 -176 410 37 110 117 192 210 214 36 8 119 -5 160 -26z m155
-46 c-6 -2 -10 -8 -10 -13 0 -6 4 -7 10 -4 6 3 7 -1 4 -10 -4 -9 -10 -13 -13
-8 -3 4 -17 21 -31 36 -18 21 -20 26 -7 21 14 -5 16 -2 10 12 -5 15 -1 14 20
-6 14 -14 22 -26 17 -28z m34 -107 c4 -16 3 -23 0 -15 -4 8 -13 29 -21 45 -14
27 -14 29 0 15 9 -8 18 -28 21 -45z"/>
<path d="M2975 2111 c-93 -43 -139 -164 -99 -259 18 -43 58 -88 96 -108 42
-22 146 -18 187 7 91 55 126 160 86 255 -44 107 -165 154 -270 105z m161 -20
c74 -33 111 -106 100 -195 -6 -55 -34 -102 -60 -100 -9 1 -13 -2 -11 -7 8 -11
-33 -35 -73 -43 -84 -15 -178 45 -201 131 -16 55 -14 78 10 128 43 92 142 128
235 86z"/>
<path d="M2980 1967 c-37 -18 -40 -64 -5 -77 34 -13 136 -13 170 0 22 8 26 15
23 42 -2 25 -9 34 -28 39 -42 12 -134 9 -160 -4z"/>
<path d="M3438 2060 c-1 -19 -1 -45 0 -58 0 -12 -3 -20 -7 -18 -5 3 -8 -21 -7
-54 1 -33 5 -60 9 -60 5 0 7 -23 5 -50 -1 -28 -2 -50 -1 -50 9 0 24 48 33 104
8 49 8 85 -1 129 -14 80 -28 105 -31 57z"/>
<path d="M3395 1783 c-3 -14 -17 -41 -30 -60 -32 -48 -22 -75 14 -39 22 23 24
28 11 36 -10 6 -11 10 -2 10 6 0 12 7 12 15 0 8 4 15 10 15 5 0 7 -8 3 -17 -5
-15 -3 -16 8 -5 10 9 10 15 1 24 -8 8 -8 15 -2 24 7 8 6 13 -4 17 -9 4 -16 -3
-21 -20z"/>
</g>
</svg>
